<svg width="185" height="92" viewBox="0 0 185 92" fill="none" xmlns="http://www.w3.org/2000/svg">
<path d="M13.8 25.2C13.6933 26.3733 13.48 27.6267 13.16 28.96C13.1067 29.1733 13.04 29.4267 12.96 29.72C12.9067 30.0133 12.8533 30.3467 12.8 30.72H14.96L13.8 25.2ZM0 38.12C2.10667 35.1867 3.81333 32.0933 5.12 28.84C6.42667 25.56 7.38667 22.6 8 19.96C8.61333 17.2933 9.16 14.5067 9.64 11.6C9.72 11.1733 9.86667 10.36 10.08 9.16H16.96L26.52 38.12H17.56L16.08 34.04H11.52C10.5867 35.8267 9.77333 37.1867 9.08 38.12H0ZM36.1234 25.24C36.2568 24.52 36.3234 23.5867 36.3234 22.44C36.3234 21.2133 36.2168 20.0667 36.0034 19C35.8168 17.9333 35.5234 17.1733 35.1234 16.72C34.8568 16.4267 34.4434 16.28 33.8834 16.28C33.4568 16.28 32.9634 16.3733 32.4034 16.56V28.32C33.2834 28.32 33.9501 28.2667 34.4034 28.16C34.8568 28.0267 35.2168 27.7467 35.4834 27.32C35.7768 26.8667 35.9901 26.1733 36.1234 25.24ZM25.3234 9.16C28.3101 8.6 31.0434 8.32 33.5234 8.32C36.4301 8.32 38.5768 8.72 39.9634 9.52C42.0168 10.6933 43.5101 12.5733 44.4434 15.16C45.3768 17.7467 45.8434 20.56 45.8434 23.6C45.8434 24.8533 45.7634 26.0533 45.6034 27.2C45.4434 28.3467 45.2434 29.3333 45.0034 30.16C44.2834 32.5333 43.1901 34.28 41.7234 35.4C40.2568 36.52 38.4034 37.24 36.1634 37.56C33.9501 37.88 30.8434 38.04 26.8434 38.04H25.3234V9.16ZM57.0547 25.24C57.188 24.52 57.2547 23.5867 57.2547 22.44C57.2547 21.2133 57.148 20.0667 56.9347 19C56.748 17.9333 56.4547 17.1733 56.0547 16.72C55.788 16.4267 55.3747 16.28 54.8147 16.28C54.388 16.28 53.8947 16.3733 53.3347 16.56V28.32C54.2147 28.32 54.8814 28.2667 55.3347 28.16C55.788 28.0267 56.148 27.7467 56.4147 27.32C56.708 26.8667 56.9214 26.1733 57.0547 25.24ZM46.2547 9.16C49.2414 8.6 51.9747 8.32 54.4547 8.32C57.3614 8.32 59.508 8.72 60.8947 9.52C62.948 10.6933 64.4414 12.5733 65.3747 15.16C66.308 17.7467 66.7747 20.56 66.7747 23.6C66.7747 24.8533 66.6947 26.0533 66.5347 27.2C66.3747 28.3467 66.1747 29.3333 65.9347 30.16C65.2147 32.5333 64.1214 34.28 62.6547 35.4C61.188 36.52 59.3347 37.24 57.0947 37.56C54.8814 37.88 51.7747 38.04 47.7747 38.04H46.2547V9.16ZM82.9937 25.2C82.8871 26.3733 82.6737 27.6267 82.3537 28.96C82.3004 29.1733 82.2337 29.4267 82.1537 29.72C82.1004 30.0133 82.0471 30.3467 81.9937 30.72H84.1537L82.9937 25.2ZM69.1937 38.12C71.3004 35.1867 73.0071 32.0933 74.3137 28.84C75.6204 25.56 76.5804 22.6 77.1937 19.96C77.8071 17.2933 78.3537 14.5067 78.8337 11.6C78.9137 11.1733 79.0604 10.36 79.2737 9.16H86.1537L95.7138 38.12H86.7537L85.2737 34.04H80.7137C79.7804 35.8267 78.9671 37.1867 78.2737 38.12H69.1937ZM111.677 28.4V38.08H94.5172V8.8H102.757V28.4H111.677ZM131.03 17.56H121.11V20.68H128.55V26.2H121.11V29.32H131.03V38.08H112.87V8.8H131.03V17.56ZM140.479 21.8C141.359 21.6133 141.959 21.08 142.279 20.2C142.492 19.6133 142.599 19.0267 142.599 18.44C142.599 17.8533 142.506 17.36 142.319 16.96C142.132 16.56 141.879 16.36 141.559 16.36H140.479V21.8ZM132.239 9.2H145.399C146.946 9.2 148.292 9.58667 149.439 10.36C150.612 11.1067 151.492 12.12 152.079 13.4C152.692 14.6533 152.999 16.0133 152.999 17.48C152.999 19.5067 152.439 21.3867 151.319 23.12C150.599 24.24 149.559 25.24 148.199 26.12C149.719 27.8 151.652 28.6667 153.999 28.72V38.52C151.519 37.88 149.079 36.72 146.679 35.04C144.279 33.36 142.399 31.24 141.039 28.68C140.772 28.7333 140.586 28.76 140.479 28.76V38.12H132.239V9.2ZM174.722 8.8V17.56H168.522V38.08H160.242V17.56H154.002V8.8H174.722ZM182.807 30.96V39.44H174.327V30.96H182.807ZM174.327 6.16H182.807L179.607 26.24H174.327V6.16Z" fill="black"/>
<path d="M18.9707 82.5512L20.8049 86.1059L21.1806 85.9121L21.5074 85.644L18.9707 82.5512ZM7.00001 88.728L53.1365 90.9091L31.9571 49.8632L7.00001 88.728ZM58.4633 44.9853L16.434 79.4585L21.5074 85.644L63.5367 51.1708L58.4633 44.9853Z" fill="black"/>
</svg>
