<svg width="741" height="406" viewBox="0 0 741 406" fill="none" xmlns="http://www.w3.org/2000/svg">
<path d="M138.382 356.659C201.83 384.401 282.594 401 370.5 401C472.391 401 564.686 378.699 631.544 342.594C698.362 306.511 740 256.495 740 201C740 145.505 698.362 95.4893 631.544 59.4059C564.686 23.3008 472.391 1 370.5 1C268.609 1 176.314 23.3008 109.456 59.4059C42.6381 95.4893 1 145.505 1 201C1 251.441 35.3994 297.355 91.8394 332.395L54.5701 399.839L52.9213 402.822L55.9206 401.202L138.382 356.659Z" fill="white" stroke="black" stroke-width="2"/>
</svg>
